<svg xmlns="http://www.w3.org/2000/svg" version="1.1" xmlns:xlink="http://www.w3.org/1999/xlink" xmlns:svgjs="http://svgjs.dev/svgjs" width="1000" height="328" viewBox="0 0 1000 328"><g transform="matrix(1,0,0,1,-0.6060606060606233,0.39113989048624376)"><svg viewBox="0 0 396 130" data-background-color="#ffffff" preserveAspectRatio="xMidYMid meet" height="328" width="1000" xmlns="http://www.w3.org/2000/svg" xmlns:xlink="http://www.w3.org/1999/xlink"><g id="tight-bounds" transform="matrix(1,0,0,1,0.2400000000000091,-0.15502495659515603)"><svg viewBox="0 0 395.52 130.3097691459483" height="130.3097691459483" width="395.52"><g><svg viewBox="0 0 616.5083308119279 203.11756236007346" height="130.3097691459483" width="395.52"><g transform="matrix(1,0,0,1,220.98833081192782,73.48836073226539)"><svg viewBox="0 0 395.52 56.140840895542695" height="56.140840895542695" width="395.52"><g id="textblocktransform"><svg viewBox="0 0 395.52 56.140840895542695" height="56.140840895542695" width="395.52" id="textblock"><g><svg viewBox="0 0 395.52 30.27968696835658" height="30.27968696835658" width="395.52"><g transform="matrix(1,0,0,1,0,0)"><svg width="395.52" viewBox="1.149999976158142 -33.70000076293945 440.82000732421875 33.75" height="30.27968696835658" data-palette-color="#ca3433"><path d="M13.45-14.3L13.45-14.3 13.1-13.1 21.2-13.1 20.85-14.3Q19.4-19.2 18.48-22.65 17.55-26.1 17.35-27.1L17.35-27.1 17.15-28.1Q16.75-25.35 13.45-14.3ZM11.25-6.9L9.2 0 1.15 0 12.4-33.7 22.1-33.7 33.35 0 25.1 0 23.05-6.9 11.25-6.9ZM51.1-33.65L51.1-10.2Q51.1-5.35 48.52-2.65 45.95 0.05 41.35 0.05L41.35 0.05Q37.9 0.05 36-0.95L36-0.95 36-7.75Q37.85-6.6 39.85-6.6L39.85-6.6Q43.4-6.6 43.4-10.4L43.4-10.4 43.4-33.65 51.1-33.65ZM67.55-14.3L67.55-14.3 67.2-13.1 75.3-13.1 74.95-14.3Q73.5-19.2 72.57-22.65 71.65-26.1 71.45-27.1L71.45-27.1 71.25-28.1Q70.84-25.35 67.55-14.3ZM65.34-6.9L63.3 0 55.25 0 66.5-33.7 76.2-33.7 87.45 0 79.2 0 77.15-6.9 65.34-6.9ZM99.54-13.95L99.54 0 91.84 0 91.84-33.7 100.29-33.7 108.14-19.75Q109.79-16.8 111.02-14.23 112.24-11.65 112.59-10.6L112.59-10.6 112.99-9.5Q112.49-13.2 112.49-19.75L112.49-19.75 112.49-33.7 120.19-33.7 120.19 0 111.74 0 103.69-13.95Q102.09-16.65 100.87-19.28 99.64-21.9 99.19-23.15L99.19-23.15 98.79-24.4Q99.54-19.9 99.54-13.95L99.54-13.95ZM149.14-33.7L149.14-27.5 140.94-27.5 140.94 0 133.19 0 133.19-27.5 124.94-27.5 124.94-33.7 149.14-33.7ZM181.69-33.7L181.69 0 173.94 0 173.94-13.45 161.59-13.45 161.59 0 153.89 0 153.89-33.7 161.59-33.7 161.59-20 173.94-20 173.94-33.7 181.69-33.7ZM198.38-14.3L198.38-14.3 198.03-13.1 206.13-13.1 205.78-14.3Q204.34-19.2 203.41-22.65 202.49-26.1 202.28-27.1L202.28-27.1 202.09-28.1Q201.69-25.35 198.38-14.3ZM196.19-6.9L194.13 0 186.09 0 197.34-33.7 207.03-33.7 218.28 0 210.03 0 207.99-6.9 196.19-6.9ZM243.18-13.05L242.13 0 234.43 0 237.33-33.7 245.78-33.7 250.48-21.5Q251.68-18.45 252.53-15.9 253.38-13.35 253.63-12.3L253.63-12.3 253.88-11.3Q254.68-14.6 257.38-21.5L257.38-21.5 262.13-33.7 270.58-33.7 274.08 0 266.38 0 265.13-13.05 264.48-22.9Q263.18-19.15 260.88-13.05L260.88-13.05 256.13-0.35 251.58-0.35 246.88-13.05Q245.73-16.15 244.93-18.6 244.13-21.05 243.88-22L243.88-22 243.63-22.9Q243.63-19.35 243.18-13.05L243.18-13.05ZM290.03-14.3L290.03-14.3 289.68-13.1 297.78-13.1 297.43-14.3Q295.98-19.2 295.05-22.65 294.13-26.1 293.93-27.1L293.93-27.1 293.73-28.1Q293.33-25.35 290.03-14.3ZM287.83-6.9L285.78 0 277.73 0 288.98-33.7 298.68-33.7 309.93 0 301.68 0 299.63-6.9 287.83-6.9ZM322.03-13.95L322.03 0 314.33 0 314.33-33.7 322.78-33.7 330.63-19.75Q332.28-16.8 333.5-14.23 334.73-11.65 335.08-10.6L335.08-10.6 335.48-9.5Q334.98-13.2 334.98-19.75L334.98-19.75 334.98-33.7 342.68-33.7 342.68 0 334.23 0 326.18-13.95Q324.58-16.65 323.35-19.28 322.13-21.9 321.68-23.15L321.68-23.15 321.28-24.4Q322.03-19.9 322.03-13.95L322.03-13.95ZM360.67 0L360.67 0 349.17 0 349.17-33.7 360.77-33.7Q368.37-33.7 373.22-29.03 378.07-24.35 378.07-17.4L378.07-17.4Q378.07-9.3 373.3-4.65 368.52 0 360.67 0ZM360.52-27.35L360.52-27.35 357.07-27.35 357.07-6.3 360.57-6.3Q365.22-6.3 367.75-9.2 370.27-12.1 370.27-17.4L370.27-17.4Q370.27-21.9 367.72-24.63 365.17-27.35 360.52-27.35ZM393.52-14.3L393.52-14.3 393.17-13.1 401.27-13.1 400.92-14.3Q399.47-19.2 398.55-22.65 397.62-26.1 397.42-27.1L397.42-27.1 397.22-28.1Q396.82-25.35 393.52-14.3ZM391.32-6.9L389.27 0 381.22 0 392.47-33.7 402.17-33.7 413.42 0 405.17 0 403.12-6.9 391.32-6.9ZM429.42-10.9L429.42-10.9 425.52-10.9 425.52 0 417.82 0 417.82-33.7 429.42-33.7Q435.02-33.7 438.49-30.55 441.97-27.4 441.97-22.55L441.97-22.55Q441.97-17 438.34-13.95 434.72-10.9 429.42-10.9ZM428.52-27.55L428.52-27.55 425.52-27.55 425.52-17 428.07-17Q434.17-17 434.17-22.55L434.17-22.55Q434.17-27.55 428.52-27.55Z" opacity="1" transform="matrix(1,0,0,1,0,0)" fill="#ca3433" class="wordmark-text-0" data-fill-palette-color="primary" id="text-0"></path></svg></g></svg></g><g transform="matrix(1,0,0,1,0,37.42799434909833)"><svg viewBox="0 0 137.1630547140222 18.712846546444364" height="18.712846546444364" width="137.1630547140222"><g transform="matrix(1,0,0,1,0,0)"><svg width="137.1630547140222" viewBox="-1 -40 389.9100036621094 53.20000076293945" height="18.712846546444364" data-palette-color="#ca3433"><path d="M11.05-35.75L11.05-37 11.05-35.75ZM36.95-37L46.4-37 46.4-35.75Q45.25-36.1 44.6-36.1L44.6-36.1Q43.05-36.1 42.75-35L42.75-35Q42.45-34 40.95-28.05L40.95-28.05Q34.55-2.8 34.45-2.35L34.45-2.35 33.85 0 30.9 0 23.15-26.95 16.9-2.45 16.95-2.35 16.8-2.05 16.3 0 13.4 0 3.6-34Q3.35-35 2.63-35.52 1.9-36.05 0.8-36.05L0.8-36.05Q-0.05-36.05-1-35.75L-1-35.75-1-37 11.05-37 11.05-35.75Q10.1-36.05 9.3-36.05L9.3-36.05Q8.5-36.05 8.05-35.7 7.6-35.35 7.6-34.7L7.6-34.7Q7.6-34.25 7.7-34L7.7-34 16.35-4.4 22.35-29.75 21.1-34Q20.8-35.05 20.38-35.55 19.95-36.05 19.1-36.05L19.1-36.05Q18.5-36.05 17.5-35.75L17.5-35.75 17.5-37 30.45-37 30.45-35.75Q29.45-36.05 28.35-36.05L28.35-36.05Q26.85-36.05 25.88-35.5 24.9-34.95 25.2-34L25.2-34 33.9-4.3 41-34Q41.1-34.3 41.1-34.75L41.1-34.75Q41.1-36.2 39.3-36.2L39.3-36.2Q38.2-36.2 36.95-35.75L36.95-35.75 36.95-37ZM53.35 0.5Q48.6 0.5 46.25-2.68 43.9-5.85 43.9-11.95L43.9-11.95Q43.9-15.15 44.9-17.98 45.9-20.8 48.02-22.58 50.15-24.35 53.25-24.35L53.25-24.35Q58.3-24.35 60.45-21.28 62.6-18.2 62.6-13.9L62.6-13.9Q62.6-13.15 62.5-11.95L62.5-11.95 62.45-11.5 47.4-11.5Q47.6-0.3 53.65-0.3L53.65-0.3Q56.35-0.3 57.65-1.95 58.95-3.6 58.95-5.7L58.95-5.7Q58.95-6.55 58.52-6.95 58.1-7.35 57.45-7.35L57.45-7.35Q56.95-7.35 56.57-7.08 56.2-6.8 56.2-6.4L56.2-6.4 55.75-6.4 55.75-7.75 62.1-7.75Q62.25-5.85 61.17-3.95 60.1-2.05 58.05-0.8 56 0.45 53.35 0.5L53.35 0.5ZM57.8-12.25Q58.7-12.25 58.87-12.43 59.05-12.6 59.1-13.3L59.1-13.3Q59.15-13.85 59.15-14.95L59.15-14.95Q59.15-18.75 57.75-21.25 56.35-23.75 53.05-23.75L53.05-23.75Q49.85-23.75 48.65-20.6 47.45-17.45 47.4-12.25L47.4-12.25 57.8-12.25ZM75.6 0.5Q70.95 0.5 68.9-3.28 66.85-7.05 66.85-12.9L66.85-12.9Q66.85-16 67.85-18.6 68.85-21.2 70.82-22.78 72.8-24.35 75.65-24.35L75.65-24.35Q78.05-24.35 79.8-22.95 81.55-21.55 82.6-19.3L82.6-19.3 83.4-19.3 83.45-32.35 83.45-37.4Q82.7-37.15 81.85-37.15L81.85-37.15Q81.5-37.15 80.8-37.25L80.8-37.25 80.8-38.6 81.25-38.6Q81.25-38.25 81.62-38 82-37.75 82.5-37.75L82.5-37.75Q83.25-37.75 84.02-38.43 84.8-39.1 85.45-40L85.45-40 86.15-40 86.15-1.95Q86.25-0.5 87.3-0.5L87.3-0.5Q87.9-0.5 88.6-0.75L88.6-0.75 88.6 0 84.35 0 83.2-3.65 82.3-3.65Q80.25 0.5 75.6 0.5L75.6 0.5ZM76.5-0.4Q80.1-0.4 81.45-3.68 82.8-6.95 82.8-12.1L82.8-12.1Q82.8-14.5 82.12-17.2 81.45-19.9 80-21.83 78.55-23.75 76.4-23.75L76.4-23.75Q73.3-23.75 71.82-20.4 70.35-17.05 70.35-12.15L70.35-12.15Q70.35-7.15 71.8-3.78 73.25-0.4 76.5-0.4L76.5-0.4ZM100.84 0.5Q96.19 0.5 94.14-3.28 92.09-7.05 92.09-12.9L92.09-12.9Q92.09-16 93.09-18.6 94.09-21.2 96.07-22.78 98.04-24.35 100.89-24.35L100.89-24.35Q103.29-24.35 105.04-22.95 106.79-21.55 107.84-19.3L107.84-19.3 108.64-19.3 108.69-32.35 108.69-37.4Q107.94-37.15 107.09-37.15L107.09-37.15Q106.74-37.15 106.04-37.25L106.04-37.25 106.04-38.6 106.49-38.6Q106.49-38.25 106.87-38 107.24-37.75 107.74-37.75L107.74-37.75Q108.49-37.75 109.27-38.43 110.04-39.1 110.69-40L110.69-40 111.39-40 111.39-1.95Q111.49-0.5 112.54-0.5L112.54-0.5Q113.14-0.5 113.84-0.75L113.84-0.75 113.84 0 109.59 0 108.44-3.65 107.54-3.65Q105.49 0.5 100.84 0.5L100.84 0.5ZM101.74-0.4Q105.34-0.4 106.69-3.68 108.04-6.95 108.04-12.1L108.04-12.1Q108.04-14.5 107.37-17.2 106.69-19.9 105.24-21.83 103.79-23.75 101.64-23.75L101.64-23.75Q98.54-23.75 97.07-20.4 95.59-17.05 95.59-12.15L95.59-12.15Q95.59-7.15 97.04-3.78 98.49-0.4 101.74-0.4L101.74-0.4ZM121.74-26.6Q120.84-26.6 120.24-27.15 119.64-27.7 119.64-28.55L119.64-28.55Q119.64-29.4 120.24-29.95 120.84-30.5 121.74-30.5L121.74-30.5Q122.64-30.5 123.27-29.93 123.89-29.35 123.89-28.55L123.89-28.55Q123.89-27.7 123.29-27.15 122.69-26.6 121.74-26.6L121.74-26.6ZM117.34-0.75Q118.19-0.5 118.59-0.5L118.59-0.5Q119.49-0.5 119.74-1.13 119.99-1.75 119.99-3L119.99-3 119.99-20.8Q119.24-20.55 118.39-20.55L118.39-20.55Q118.04-20.55 117.34-20.65L117.34-20.65 117.34-22 117.79-22Q117.79-21.65 118.17-21.4 118.54-21.15 119.04-21.15L119.04-21.15Q119.74-21.15 120.29-21.7 120.84-22.25 121.64-23.4L121.64-23.4 123.09-23.4 123.09-3Q123.09-1.7 123.32-1.1 123.54-0.5 124.34-0.5L124.34-0.5Q124.74-0.5 125.59-0.75L125.59-0.75 125.59 0 117.34 0 117.34-0.75ZM148.99-3Q148.99-1.75 149.24-1.13 149.49-0.5 150.39-0.5L150.39-0.5Q150.79-0.5 151.64-0.75L151.64-0.75 151.64 0 143.14 0 143.14-0.75Q143.99-0.5 144.39-0.5L144.39-0.5Q145.19-0.5 145.41-1.1 145.64-1.7 145.64-3L145.64-3 145.64-16.4Q145.64-19.85 144.21-21.8 142.79-23.75 140.49-23.75L140.49-23.75Q138.29-23.75 136.96-22.03 135.64-20.3 135.11-17.95 134.59-15.6 134.59-13.45L134.59-13.45 134.59-3Q134.59-1.7 134.81-1.1 135.04-0.5 135.84-0.5L135.84-0.5Q136.24-0.5 137.09-0.75L137.09-0.75 137.09 0 128.59 0 128.59-0.75Q129.44-0.5 129.84-0.5L129.84-0.5Q130.74-0.5 130.99-1.13 131.24-1.75 131.24-3L131.24-3 131.24-20.75Q130.49-20.5 129.64-20.5L129.64-20.5Q129.29-20.5 128.59-20.6L128.59-20.6 128.59-21.95 129.04-21.95Q129.04-21.6 129.41-21.35 129.79-21.1 130.29-21.1L130.29-21.1Q130.99-21.1 131.54-21.65 132.09-22.2 132.89-23.35L132.89-23.35 133.79-23.35 133.84-19.3 134.54-19.3Q135.44-21.55 137.01-22.98 138.59-24.4 140.94-24.4L140.94-24.4Q142.84-24.4 144.71-23.43 146.59-22.45 147.79-20.63 148.99-18.8 148.99-16.4L148.99-16.4 148.99-3ZM171.29-23.4Q170.54-23.6 169.49-22.45L169.49-22.45Q170.79-21.3 171.44-19.6 172.09-17.9 172.09-16L172.09-16Q172.09-12.3 170.06-10 168.04-7.7 163.79-7.7L163.79-7.7Q160.39-7.7 158.29-9.4L158.29-9.4Q157.19-9.1 156.74-8.22 156.29-7.35 156.29-6.5L156.29-6.5Q156.29-4.1 160.64-4.1L160.64-4.1 166.04-4Q170.29-3.95 172.41-1.68 174.54 0.6 174.54 3.7L174.54 3.7Q174.54 6.15 173.19 8.33 171.84 10.5 169.39 11.85 166.94 13.2 163.79 13.2L163.79 13.2Q161.14 13.2 158.91 12.2 156.69 11.2 155.41 9.53 154.14 7.85 154.14 5.85L154.14 5.85Q154.14 4.45 154.89 3.13 155.64 1.8 157.26 0.9 158.89 0 161.39 0L161.39 0 161.39 0.4Q158.89 0.4 158.04 1.85 157.19 3.3 157.19 5.85L157.19 5.85Q157.19 8.55 158.84 10.43 160.49 12.3 163.79 12.3L163.79 12.3Q167.34 12.3 169.31 10.13 171.29 7.95 171.29 4.05L171.29 4.05Q171.29-1.75 161.29-1.75L161.29-1.75Q154.79-1.75 154.79-5.3L154.79-5.3Q154.79-6.6 155.56-7.95 156.34-9.3 157.89-9.8L157.89-9.8Q155.74-12 155.74-16L155.74-16Q155.74-19.5 157.74-21.93 159.74-24.35 163.79-24.35L163.79-24.35Q166.94-24.35 169.04-22.8L169.04-22.8Q169.69-23.45 170.61-23.88 171.54-24.3 172.39-24.3L172.39-24.3Q172.94-24.3 173.19-24.2L173.19-24.2Q173.94-23.95 174.46-23.38 174.99-22.8 174.99-22.15L174.99-22.15Q174.99-21.65 174.59-21.1L174.59-21.1Q174.09-20.45 173.69-20.45L173.69-20.45Q173.34-20.45 173.09-20.8 172.84-21.15 172.49-21.85L172.49-21.85Q172.14-22.6 171.89-22.98 171.64-23.35 171.29-23.4L171.29-23.4ZM163.79-8.3Q166.44-8.3 167.51-10.35 168.59-12.4 168.59-16L168.59-16Q168.59-19.4 167.49-21.58 166.39-23.75 163.79-23.75L163.79-23.75Q161.24-23.75 160.19-21.58 159.14-19.4 159.14-16L159.14-16Q159.14-12.4 160.16-10.35 161.19-8.3 163.79-8.3L163.79-8.3ZM197.73 0.5Q193.08 0.5 191.03-3.28 188.98-7.05 188.98-12.9L188.98-12.9Q188.98-16 189.98-18.6 190.98-21.2 192.96-22.78 194.93-24.35 197.78-24.35L197.78-24.35Q200.18-24.35 201.93-22.95 203.68-21.55 204.73-19.3L204.73-19.3 205.53-19.3 205.58-32.35 205.58-37.4Q204.83-37.15 203.98-37.15L203.98-37.15Q203.63-37.15 202.93-37.25L202.93-37.25 202.93-38.6 203.38-38.6Q203.38-38.25 203.76-38 204.13-37.75 204.63-37.75L204.63-37.75Q205.38-37.75 206.16-38.43 206.93-39.1 207.58-40L207.58-40 208.28-40 208.28-1.95Q208.38-0.5 209.43-0.5L209.43-0.5Q210.03-0.5 210.73-0.75L210.73-0.75 210.73 0 206.48 0 205.33-3.65 204.43-3.65Q202.38 0.5 197.73 0.5L197.73 0.5ZM198.63-0.4Q202.23-0.4 203.58-3.68 204.93-6.95 204.93-12.1L204.93-12.1Q204.93-14.5 204.26-17.2 203.58-19.9 202.13-21.83 200.68-23.75 198.53-23.75L198.53-23.75Q195.43-23.75 193.96-20.4 192.48-17.05 192.48-12.15L192.48-12.15Q192.48-7.15 193.93-3.78 195.38-0.4 198.63-0.4L198.63-0.4ZM223.68 0.5Q218.93 0.5 216.58-2.68 214.23-5.85 214.23-11.95L214.23-11.95Q214.23-15.15 215.23-17.98 216.23-20.8 218.35-22.58 220.48-24.35 223.58-24.35L223.58-24.35Q228.63-24.35 230.78-21.28 232.93-18.2 232.93-13.9L232.93-13.9Q232.93-13.15 232.83-11.95L232.83-11.95 232.78-11.5 217.73-11.5Q217.93-0.3 223.98-0.3L223.98-0.3Q226.68-0.3 227.98-1.95 229.28-3.6 229.28-5.7L229.28-5.7Q229.28-6.55 228.85-6.95 228.43-7.35 227.78-7.35L227.78-7.35Q227.28-7.35 226.9-7.08 226.53-6.8 226.53-6.4L226.53-6.4 226.08-6.4 226.08-7.75 232.43-7.75Q232.58-5.85 231.5-3.95 230.43-2.05 228.38-0.8 226.33 0.45 223.68 0.5L223.68 0.5ZM228.13-12.25Q229.03-12.25 229.2-12.43 229.38-12.6 229.43-13.3L229.43-13.3Q229.48-13.85 229.48-14.95L229.48-14.95Q229.48-18.75 228.08-21.25 226.68-23.75 223.38-23.75L223.38-23.75Q220.18-23.75 218.98-20.6 217.78-17.45 217.73-12.25L217.73-12.25 228.13-12.25ZM247.78 0.5Q244.08 0.5 241.7-1.25 239.33-3 238.25-5.83 237.18-8.65 237.18-11.95L237.18-11.95Q237.18-15.15 238.28-17.98 239.38-20.8 241.6-22.58 243.83-24.35 246.93-24.35L246.93-24.35Q249.78-24.35 252.25-23.05 254.73-21.75 255.08-19.75L255.08-19.75Q255.18-19.05 255.18-18.8L255.18-18.8Q255.18-17.7 254.63-17.03 254.08-16.35 253.08-16.35L253.08-16.35Q251.33-16.35 251.33-17.45L251.33-17.45Q251.33-17.9 251.58-18.75L251.58-18.75Q251.88-19.75 251.88-20.4L251.88-20.4Q251.88-21.4 251.13-22.18 250.38-22.95 249.33-23.35 248.28-23.75 247.43-23.75L247.43-23.75Q244.28-23.75 242.48-20.63 240.68-17.5 240.68-11.5L240.68-11.5Q240.68-6.65 242.45-3.55 244.23-0.45 247.93-0.45L247.93-0.45Q250.48-0.45 252.13-2 253.78-3.55 254.33-5.8L254.33-5.8 255.43-5.8Q254.73-3.2 252.63-1.35 250.53 0.5 247.78 0.5L247.78 0.5ZM268.87 0.5Q263.57 0.5 261.25-2.88 258.92-6.25 258.92-11.95L258.92-11.95Q258.92-17.2 261.27-20.78 263.62-24.35 268.87-24.35L268.87-24.35Q274.12-24.35 276.5-20.78 278.87-17.2 278.87-11.95L278.87-11.95Q278.87-6.25 276.52-2.88 274.17 0.5 268.87 0.5L268.87 0.5ZM268.87-0.1Q272.27-0.1 273.82-3.38 275.37-6.65 275.37-11.95L275.37-11.95Q275.37-16.9 273.77-20.33 272.17-23.75 268.87-23.75L268.87-23.75Q265.57-23.75 264-20.33 262.42-16.9 262.42-11.95L262.42-11.95Q262.42-6.65 263.97-3.38 265.52-0.1 268.87-0.1L268.87-0.1ZM295.27-20.15Q295.27-19.55 295.07-18.8 294.87-18.05 294.82-17.9L294.82-17.9Q294.42-16.6 294.42-16.15L294.42-16.15Q294.42-15.15 295.87-15.15L295.87-15.15 295.87-14.65Q293.82-14.65 292.94-15.7 292.07-16.75 292.07-18.4L292.07-18.4Q292.07-19.2 292.22-19.95L292.22-19.95Q292.52-21.4 292.52-22.2L292.52-22.2Q292.52-23.05 292.19-23.38 291.87-23.7 291.17-23.7L291.17-23.7Q289.72-23.7 288.92-20.63 288.12-17.55 288.12-13.45L288.12-13.45 288.12-3Q288.12-1.7 288.35-1.1 288.57-0.5 289.37-0.5L289.37-0.5Q289.77-0.5 290.62-0.75L290.62-0.75 290.62 0 282.37 0 282.37-0.75Q283.22-0.5 283.62-0.5L283.62-0.5Q284.52-0.5 284.77-1.13 285.02-1.75 285.02-3L285.02-3 285.02-20.8Q284.27-20.55 283.42-20.55L283.42-20.55Q283.07-20.55 282.37-20.65L282.37-20.65 282.37-22 282.82-22Q282.82-21.65 283.19-21.4 283.57-21.15 284.07-21.15L284.07-21.15Q284.82-21.15 285.37-21.7 285.92-22.25 286.67-23.35L286.67-23.35 287.17-23.35 287.22-19.3 287.72-19.3Q288.32-21.9 289.39-23.13 290.47-24.35 291.67-24.35L291.67-24.35Q293.42-24.35 294.35-23.05 295.27-21.75 295.27-20.15L295.27-20.15ZM304.97 0.5Q302.17 0.5 300.27-1.23 298.37-2.95 298.37-6.15L298.37-6.15Q298.37-8.45 299.92-10.08 301.47-11.7 303.32-12.3L303.32-12.3Q304.27-12.6 305.54-12.88 306.82-13.15 307.27-13.25L307.27-13.25Q309.77-13.75 311.02-14.18 312.27-14.6 312.52-15.35L312.52-15.35Q312.52-18.95 311.14-21.35 309.77-23.75 306.57-23.75L306.57-23.75Q304.57-23.75 303.59-22.33 302.62-20.9 302.62-18.5L302.62-18.5Q302.62-17.85 302.87-17.57 303.12-17.3 304.02-17.3L304.02-17.3Q304.57-17.3 304.97-17.55 305.37-17.8 305.37-18.15L305.37-18.15 305.82-18.15 305.82-16.8 299.27-16.8Q299.27-18.6 300.32-20.38 301.37-22.15 303.22-23.28 305.07-24.4 307.32-24.4L307.32-24.4Q310.32-24.4 312.14-23.03 313.97-21.65 314.74-19.73 315.52-17.8 315.52-15.9L315.52-15.9 315.52-5.05Q315.52-1.3 317.12-1.3L317.12-1.3Q317.62-1.3 318.04-1.98 318.47-2.65 318.47-3.35L318.47-3.35 318.97-3.35Q318.97-1.5 317.84-0.5 316.72 0.5 315.27 0.5L315.27 0.5Q313.57 0.5 313.04-1 312.52-2.5 312.52-5.2L312.52-5.2 312.52-7.5Q312.52-6.8 311.84-4.85 311.17-2.9 309.47-1.2 307.77 0.5 304.97 0.5L304.97 0.5ZM306.12-0.9Q307.82-0.9 309.27-2.25 310.72-3.6 311.57-5.45 312.42-7.3 312.42-8.55L312.42-8.55 312.42-14.25Q312.42-14.1 311.92-13.95 311.42-13.8 310.67-13.65L310.67-13.65Q307.42-12.8 305.92-12.25L305.92-12.25Q303.57-11.4 302.47-9.88 301.37-8.35 301.37-6.45L301.37-6.45Q301.37-4.25 302.59-2.58 303.82-0.9 306.12-0.9L306.12-0.9ZM326.67 0.5Q324.82 0.5 324.29-0.93 323.77-2.35 323.77-5.1L323.77-5.1 323.77-7.5 323.77-22.65 320.47-22.65 320.47-23.4 323.77-23.4 323.77-28.75Q324.82-28.75 325.34-29.45 325.87-30.15 325.87-30.9L325.87-30.9 326.92-30.9 326.87-23.4 330.97-23.4 330.97-22.65 326.87-22.65 326.82-5.05Q326.82-3.05 327.19-2.18 327.57-1.3 328.42-1.3L328.42-1.3Q329.42-1.3 330.07-2.2 330.72-3.1 331.04-4.23 331.37-5.35 331.37-6L331.37-6 331.87-6Q331.87-4.6 331.22-3.08 330.57-1.55 329.39-0.53 328.22 0.5 326.67 0.5L326.67 0.5ZM344.81 0.5Q339.51 0.5 337.19-2.88 334.86-6.25 334.86-11.95L334.86-11.95Q334.86-17.2 337.21-20.78 339.56-24.35 344.81-24.35L344.81-24.35Q350.06-24.35 352.44-20.78 354.81-17.2 354.81-11.95L354.81-11.95Q354.81-6.25 352.46-2.88 350.11 0.5 344.81 0.5L344.81 0.5ZM344.81-0.1Q348.21-0.1 349.76-3.38 351.31-6.65 351.31-11.95L351.31-11.95Q351.31-16.9 349.71-20.33 348.11-23.75 344.81-23.75L344.81-23.75Q341.51-23.75 339.94-20.33 338.36-16.9 338.36-11.95L338.36-11.95Q338.36-6.65 339.91-3.38 341.46-0.1 344.81-0.1L344.81-0.1ZM371.21-20.15Q371.21-19.55 371.01-18.8 370.81-18.05 370.76-17.9L370.76-17.9Q370.36-16.6 370.36-16.15L370.36-16.15Q370.36-15.15 371.81-15.15L371.81-15.15 371.81-14.65Q369.76-14.65 368.88-15.7 368.01-16.75 368.01-18.4L368.01-18.4Q368.01-19.2 368.16-19.95L368.16-19.95Q368.46-21.4 368.46-22.2L368.46-22.2Q368.46-23.05 368.13-23.38 367.81-23.7 367.11-23.7L367.11-23.7Q365.66-23.7 364.86-20.63 364.06-17.55 364.06-13.45L364.06-13.45 364.06-3Q364.06-1.7 364.29-1.1 364.51-0.5 365.31-0.5L365.31-0.5Q365.71-0.5 366.56-0.75L366.56-0.75 366.56 0 358.31 0 358.31-0.75Q359.16-0.5 359.56-0.5L359.56-0.5Q360.46-0.5 360.71-1.13 360.96-1.75 360.96-3L360.96-3 360.96-20.8Q360.21-20.55 359.36-20.55L359.36-20.55Q359.01-20.55 358.31-20.65L358.31-20.65 358.31-22 358.76-22Q358.76-21.65 359.13-21.4 359.51-21.15 360.01-21.15L360.01-21.15Q360.76-21.15 361.31-21.7 361.86-22.25 362.61-23.35L362.61-23.35 363.11-23.35 363.16-19.3 363.66-19.3Q364.26-21.9 365.33-23.13 366.41-24.35 367.61-24.35L367.61-24.35Q369.36-24.35 370.29-23.05 371.21-21.75 371.21-20.15L371.21-20.15ZM381.81 0.5Q377.66 0.5 375.46-2.7L375.46-2.7 375.01 0 374.36 0 374.36-8.95 375.26-8.95Q375.26-4.65 376.66-2.58 378.06-0.5 380.91-0.5L380.91-0.5Q383.26-0.5 384.41-2.13 385.56-3.75 385.56-6.3L385.56-6.3Q385.56-8.35 384.13-9.55 382.71-10.75 379.96-12.05L379.96-12.05Q378.06-12.95 376.96-13.65 375.86-14.35 375.08-15.4 374.31-16.45 374.31-17.95L374.31-17.95Q374.31-21 376.23-22.68 378.16-24.35 381.11-24.35L381.11-24.35Q382.86-24.35 384.43-23.53 386.01-22.7 386.26-21.8L386.26-21.8 386.61-24.35 387.26-24.35 387.26-17.8 386.51-17.8Q386.51-20 385.16-21.75 383.81-23.5 381.61-23.5L381.61-23.5Q377.56-23.5 377.56-19.05L377.56-19.05Q377.56-17.5 378.71-16.55 379.86-15.6 382.36-14.3L382.36-14.3Q384.46-13.2 385.76-12.33 387.06-11.45 387.98-10.05 388.91-8.65 388.91-6.65L388.91-6.65Q388.91-4.95 388.01-3.3 387.11-1.65 385.48-0.58 383.86 0.5 381.81 0.5L381.81 0.5Z" opacity="1" transform="matrix(1,0,0,1,0,0)" fill="#ca3433" class="slogan-text-1" data-fill-palette-color="secondary" id="text-1"></path></svg></g></svg></g></svg></g></svg></g><g><svg viewBox="0 0 203.11756236007346 203.11756236007346" height="203.11756236007346" width="203.11756236007346"><g><svg viewBox="0 0 203.11756236007346 203.11756236007346" height="203.11756236007346" width="203.11756236007346"><g transform="matrix(1,0,0,1,58.43115705246816,53.683512605740276)"><svg viewBox="0 0 86.25524825513715 95.75053714859291" height="95.75053714859291" width="86.25524825513715"><g><svg xmlns="http://www.w3.org/2000/svg" xmlns:xlink="http://www.w3.org/1999/xlink" version="1.1" x="0" y="0" viewBox="9.824851036071777 10.18899917602539 75.65016174316406 83.9780044555664" enable-background="new 0 0 100 100" xml:space="preserve" height="95.75053714859291" width="86.25524825513715" class="icon-s-0" data-fill-palette-color="accent" id="s-0"><g fill="#ca3433" data-fill-palette-color="accent"><path d="M68.539 20.675c-2.891 0-5.242-2.354-5.242-5.246 0-2.89 2.352-5.24 5.242-5.24 2.892 0 5.244 2.351 5.244 5.24C73.783 18.322 71.431 20.675 68.539 20.675zM68.539 12.368c-1.688 0-3.062 1.374-3.062 3.061 0 1.691 1.374 3.066 3.062 3.066 1.689 0 3.064-1.375 3.064-3.066C71.604 13.742 70.229 12.368 68.539 12.368z" fill="#ca3433" data-fill-palette-color="accent"></path><path d="M55.242 26.107c-2.891 0-5.242-2.354-5.242-5.246 0-2.89 2.352-5.24 5.242-5.24 2.892 0 5.244 2.351 5.244 5.24C60.486 23.753 58.134 26.107 55.242 26.107zM55.242 17.8c-1.688 0-3.062 1.374-3.062 3.061 0 1.691 1.374 3.066 3.062 3.066 1.689 0 3.064-1.375 3.064-3.066C58.307 19.173 56.932 17.8 55.242 17.8z" fill="#ca3433" data-fill-palette-color="accent"></path><g fill="#ca3433" data-fill-palette-color="accent"><path d="M84.195 93.278H70.218l5.567-4.775c-7.455-19.181-5.438-36.175-4.46-43.801-0.378-0.584-0.758-1.175-1.136-1.771-2.653 2.275-5.023 2.785-6.615 2.785-2.043 0-3.323-0.799-3.463-0.89l-2.051-1.342 2.37-0.625c2.346-0.617 4.59-2.299 6.681-5.007-2.958-5.187-3.311-7.034-3.311-7.976 0-5.074 4.199-9.202 9.361-9.202 5.163 0 9.363 4.128 9.363 9.202 0 1.882-0.469 6.328-1.396 13.22 4.749 3.776 4.236 7.401 2.926 9.812-3.247 5.976-0.225 30.256 1.216 39.105l0.205 1.264H84.195zM76.106 91.099h6.815c-0.938-6.148-4.616-32.171-0.781-39.23 0.511-0.941 2.066-3.801-2.823-7.414l-0.519-0.383 0.086-0.64c0.956-7.053 1.462-11.74 1.462-13.555 0-3.873-3.223-7.023-7.185-7.023-3.96 0-7.182 3.15-7.182 7.023 0 0.633 0.438 2.449 3.376 7.507l0.356 0.614-0.418 0.574c-1.561 2.146-3.231 3.79-4.994 4.916 1.754-0.226 3.584-1.258 5.337-3.02l0.969-0.974 0.728 1.165c0.672 1.074 1.36 2.147 2.037 3.189l0.219 0.336-0.051 0.397c-0.947 7.344-3.163 24.543 4.557 43.838l0.289 0.724L76.106 91.099z" fill="#ca3433" data-fill-palette-color="accent"></path></g><path d="M40.401 94.167c-10.024 0-27.295-1.173-30.34-9.028-1.748-4.517 6.452-12.918 16.529-22.624 2.707-2.605 5.766-5.552 6.209-6.401 0.078-6.641 5.811-11.962 12.516-11.442-0.183-3.583-0.372-7.798-0.372-9.922 0-4.865 2.967-8.824 6.613-8.824 3.647 0 6.614 3.958 6.614 8.824 0 1.044-0.45 2.463-1.373 4.329 1.326 2.04 2.78 3.264 4.33 3.643l2.169 0.531-1.754 1.383c-0.128 0.102-1.302 0.986-3.092 0.986 0 0 0 0-0.001 0-1.096 0-2.668-0.35-4.353-1.857-0.689 1.083-1.47 2.25-2.333 3.493 2.691 2.195 4.269 5.483 4.269 8.998 0 0.945 0.063 2.539 0.145 4.554 0.776 19.355 0.303 31.575-4.449 32.688C50.32 93.825 45.697 94.167 40.401 94.167zM44.414 46.814c-5.202 0-9.436 4.234-9.436 9.439 0 1.099-1.303 2.464-6.875 7.831-6.073 5.848-17.377 16.734-16.01 20.267 1.853 4.781 12.435 7.636 28.308 7.636 5.802 0 9.916-0.399 10.829-0.613 3.955-0.928 3.062-23.169 2.77-30.478-0.082-2.041-0.146-3.652-0.146-4.643 0-3.159-1.568-6.093-4.196-7.849l-0.93-0.622 0.646-0.914c1.421-2.011 2.634-3.836 3.605-5.429l0.781-1.28 0.976 1.139c0.964 1.125 1.948 1.81 2.936 2.047-1.101-0.879-2.122-2.099-3.057-3.652l-0.315-0.523 0.282-0.542c1.228-2.359 1.41-3.444 1.41-3.881 0-3.602-2.03-6.645-4.435-6.645-2.403 0-4.434 3.043-4.434 6.645 0 2.343 0.238 7.342 0.438 11.123l0.074 1.399-1.375-0.272C45.646 46.876 45.025 46.814 44.414 46.814z" fill="#ca3433" data-fill-palette-color="accent"></path></g></svg></g></svg></g><g><path d="M12.653 72.606v0l0.49 0.355 1.307-3.675-0.603-0.034c-1.639-0.088-3.029-0.179-4.17-0.274-1.143-0.088-1.879-0.159-2.207-0.212v0l-0.486-0.067c0.793 0.417 2.683 1.719 5.669 3.907zM15.658 74.811l2.809 2.04-1.304 3.665-13.491-10.565 1.569-4.409 17.129 0.341-1.335 3.75-3.469-0.183z" fill="#ca3433" data-fill-palette-color="accent"></path><path d="M12.92 49.286l9.916 5.44c1.368 0.75 2.233 1.696 2.596 2.839 0.362 1.142 0.187 2.361-0.525 3.659v0c-0.532 0.97-1.086 1.647-1.662 2.031v0l-2.876-1.578c0.616-0.347 1.078-0.8 1.386-1.361v0c0.548-1 0.288-1.793-0.782-2.38v0l-9.838-5.397z" fill="#ca3433" data-fill-palette-color="accent"></path><path d="M27.344 45.326v0l0.347 0.495 2.432-3.05-0.56-0.229c-1.521-0.616-2.806-1.154-3.854-1.615-1.052-0.455-1.725-0.761-2.018-0.918v0l-0.438-0.221c0.614 0.652 1.978 2.498 4.091 5.538zM29.469 48.388l1.993 2.843-2.426 3.042-9.322-14.377 2.918-3.66 16.086 5.892-2.481 3.113-3.221-1.302z" fill="#ca3433" data-fill-palette-color="accent"></path><path d="M39.694 32.343l4.353 5.133-2.83 2.4-10.511-12.395 3.104-2.632 7.244 2.681c1.014 0.381 1.938 0.76 2.774 1.137 0.835 0.376 1.405 0.657 1.711 0.843v0l0.496 0.275c-0.895-0.797-2.023-1.999-3.387-3.607v0l-4.353-5.133 2.838-2.406 10.511 12.395-3.112 2.639-7.313-2.624c-0.952-0.329-1.85-0.687-2.693-1.073-0.848-0.391-1.457-0.692-1.828-0.902v0l-0.539-0.343c1.119 0.948 2.297 2.152 3.535 3.612z" fill="#ca3433" data-fill-palette-color="accent"></path><path d="M56.974 9.359l1.455 2.612-3.451 1.923 6.453 11.585-3.267 1.82-6.454-11.585-3.477 1.937-1.455-2.612z" fill="#ca3433" data-fill-palette-color="accent"></path><path d="M75.654 2.498l5.305 15.362-3.536 1.22-2.119-6.135-5.624 1.942 2.118 6.136-3.507 1.211-5.304-15.362 3.507-1.211 2.157 6.249 5.625-1.943-2.158-6.248z" fill="#ca3433" data-fill-palette-color="accent"></path><path d="M89.252 9.776v0l-0.101 0.596 3.874-0.458-0.237-0.556c-0.648-1.508-1.183-2.794-1.605-3.859-0.428-1.064-0.691-1.754-0.789-2.072v0l-0.156-0.465c-0.022 0.895-0.35 3.167-0.986 6.814zM88.609 13.448l-0.582 3.422-3.863 0.457 3.482-16.777 4.648-0.55 7.294 15.502-3.953 0.468-1.375-3.191z" fill="#ca3433" data-fill-palette-color="accent"></path><path d="M115.657 10.732l-1.715 6.073-3.64-0.722 4.527-15.671 4.003 0.795 1.072 6.208c0.189 1.037 0.337 1.984 0.446 2.841 0.109 0.858 0.169 1.461 0.181 1.81v0l0.024 0.494c0.461-0.989 1.333-2.488 2.616-4.497v0l3.391-5.322 4.002 0.794-1.515 16.268-3.64-0.722 0.636-6.288 0.611-4.722c-0.64 1.103-1.514 2.544-2.622 4.323v0l-3.437 5.558-2.159-0.428-1.025-6.444c-0.172-1.054-0.305-1.991-0.401-2.812-0.102-0.822-0.162-1.392-0.181-1.708v0l-0.034-0.445c-0.222 1.118-0.602 2.657-1.14 4.617z" fill="#ca3433" data-fill-palette-color="accent"></path><path d="M139.846 17.125v0l-0.398 0.455 3.54 1.639 0.089-0.598c0.237-1.624 0.456-3 0.654-4.127 0.193-1.13 0.33-1.856 0.414-2.179v0l0.11-0.477c-0.487 0.751-1.957 2.514-4.409 5.287zM137.375 19.916l-2.288 2.61-3.531-1.634 11.755-12.467 4.248 1.966-1.908 17.026-3.612-1.672 0.5-3.439z" fill="#ca3433" data-fill-palette-color="accent"></path><path d="M155.39 26.039l-3.951 5.449-3.004-2.179 9.541-13.156 3.295 2.39-0.883 7.673c-0.129 1.076-0.278 2.064-0.444 2.964-0.167 0.9-0.304 1.521-0.412 1.863v0l-0.149 0.547c0.562-1.059 1.461-2.441 2.698-4.146v0l3.951-5.449 3.012 2.184-9.541 13.156-3.303-2.395 0.81-7.727c0.093-1.003 0.227-1.96 0.402-2.871 0.179-0.916 0.326-1.58 0.442-1.99v0l0.204-0.605c-0.655 1.312-1.544 2.743-2.668 4.292z" fill="#ca3433" data-fill-palette-color="accent"></path><path d="M166.203 44.551v0l-3.719-4.107 12.048-10.908 3.752 4.145c1.638 1.809 2.424 3.795 2.359 5.958-0.07 2.168-0.933 4.001-2.588 5.501v0c-1.933 1.75-3.967 2.557-6.104 2.423-2.136-0.134-4.053-1.138-5.748-3.012zM175.935 35.646v0l-1.115-1.231-7.525 6.813 1.128 1.246c1.007 1.112 2.127 1.654 3.36 1.625 1.233-0.019 2.482-0.601 3.748-1.747v0c1.073-0.971 1.657-2.054 1.754-3.248 0.102-1.199-0.348-2.352-1.35-3.458z" fill="#ca3433" data-fill-palette-color="accent"></path><path d="M182.188 54.724v0l-0.587 0.144 1.955 3.375 0.417-0.438c1.128-1.192 2.097-2.193 2.907-3.001 0.807-0.814 1.337-1.329 1.59-1.545v0l0.366-0.327c-0.831 0.335-3.047 0.932-6.648 1.792zM178.563 55.588l-3.374 0.821-1.949-3.367 16.785-3.445 2.345 4.05-11.346 12.835-1.995-3.444 2.386-2.526z" fill="#ca3433" data-fill-palette-color="accent"></path><path d="M189.081 73.192v0l-0.63-1.771-4.956 1.763-1.244-3.496 15.312-5.446 1.874 5.267c0.603 1.696 0.615 3.242 0.035 4.637-0.582 1.389-1.607 2.344-3.077 2.867v0c-1.677 0.597-3.173 0.509-4.488-0.261-1.312-0.765-2.254-1.951-2.826-3.559zM196.494 70.099v0l-0.486-1.366-4.787 1.703 0.412 1.159c0.657 1.847 1.824 2.472 3.502 1.875v0c1.514-0.539 1.967-1.662 1.359-3.371z" fill="#ca3433" data-fill-palette-color="accent"></path><path d="M14.139 133.345v0l-0.604 0.034 1.308 3.675 0.489-0.355c1.326-0.967 2.461-1.775 3.406-2.422 0.948-0.656 1.563-1.066 1.844-1.229v0l0.419-0.255c-0.878 0.178-3.165 0.362-6.862 0.552zM10.416 133.534l-3.466 0.193-1.304-3.665 17.131-0.332 1.569 4.409-13.493 10.555-1.335-3.75 2.806-2.049z" fill="#ca3433" data-fill-palette-color="accent"></path><path d="M30.663 147.459l-9.916 5.441c-1.368 0.75-2.631 0.972-3.789 0.663-1.158-0.308-2.092-1.111-2.804-2.408v0c-0.532-0.97-0.806-1.801-0.82-2.493v0l2.876-1.578c-0.039 0.706 0.096 1.339 0.404 1.9v0c0.548 1 1.357 1.206 2.427 0.619v0l9.838-5.397z" fill="#ca3433" data-fill-palette-color="accent"></path><path d="M28.577 160.17v0l-0.56 0.229 2.431 3.05 0.348-0.495c0.939-1.346 1.75-2.478 2.433-3.397 0.684-0.929 1.132-1.516 1.345-1.763v0l0.313-0.377c-0.772 0.454-2.876 1.372-6.31 2.753zM25.118 161.559l-3.215 1.31-2.426-3.042 16.093-5.884 2.918 3.659-9.329 14.37-2.481-3.113 1.987-2.85z" fill="#ca3433" data-fill-palette-color="accent"></path><path d="M40.493 173.193l-4.353 5.134-2.83-2.4 10.512-12.395 3.104 2.633-1.463 7.585c-0.211 1.063-0.433 2.037-0.668 2.921-0.235 0.885-0.419 1.494-0.552 1.827v0l-0.19 0.533c0.64-1.013 1.642-2.323 3.005-3.929v0l4.353-5.134 2.837 2.407-10.511 12.394-3.112-2.639 1.394-7.643c0.169-0.993 0.375-1.937 0.618-2.832 0.248-0.9 0.445-1.55 0.592-1.951v0l0.25-0.588c-0.753 1.259-1.748 2.618-2.986 4.077z" fill="#ca3433" data-fill-palette-color="accent"></path><path d="M66.842 179.405l-1.455 2.612-3.451-1.922-6.454 11.585-3.268-1.82 6.454-11.585-3.477-1.937 1.455-2.613z" fill="#ca3433" data-fill-palette-color="accent"></path><path d="M82.273 184.814l-5.305 15.361-3.526-1.218 2.119-6.135-5.635-1.945-2.118 6.135-3.507-1.211 5.304-15.362 3.507 1.211-2.157 6.249 5.634 1.946 2.158-6.249z" fill="#ca3433" data-fill-palette-color="accent"></path><path d="M89.437 195.137v0l-0.237 0.556 3.873 0.459-0.1-0.596c-0.279-1.617-0.498-2.993-0.66-4.127-0.167-1.141-0.262-1.874-0.284-2.199v0l-0.042-0.488c-0.23 0.866-1.08 2.998-2.55 6.395zM87.955 198.557l-1.365 3.192-3.864-0.457 7.304-15.501 4.648 0.55 3.472 16.777-3.952-0.468-0.592-3.424z" fill="#ca3433" data-fill-palette-color="accent"></path><path d="M115.587 195.398l0.734 6.268-3.64 0.722-1.799-16.212 4.002-0.794 3.362 5.328c0.57 0.886 1.069 1.705 1.496 2.456 0.428 0.751 0.714 1.286 0.859 1.604v0l0.211 0.448c0.049-1.09 0.282-2.809 0.7-5.156v0l1.102-6.214 4.002-0.794 4.812 15.614-3.64 0.722-1.813-6.053-1.228-4.6c-0.177 1.265-0.438 2.932-0.783 4.999v0l-1.055 6.449-2.148 0.426-3.418-5.562c-0.561-0.908-1.042-1.724-1.444-2.446-0.408-0.721-0.681-1.224-0.82-1.509v0l-0.201-0.399c0.222 1.118 0.458 2.686 0.709 4.703z" fill="#ca3433" data-fill-palette-color="accent"></path><path d="M139.183 187.924v0l0.09 0.597 3.539-1.638-0.398-0.455c-1.085-1.232-1.992-2.288-2.723-3.17-0.74-0.884-1.204-1.459-1.394-1.724v0l-0.292-0.394c0.258 0.858 0.65 3.119 1.178 6.784zM139.712 191.613l0.51 3.434-3.531 1.634-1.899-17.029 4.248-1.966 11.746 12.471-3.612 1.672-2.298-2.606z" fill="#ca3433" data-fill-palette-color="accent"></path><path d="M154.664 179.44l3.951 5.449-3.004 2.178-9.54-13.157 3.295-2.389 7.02 3.223c0.982 0.457 1.875 0.905 2.679 1.344 0.804 0.438 1.351 0.762 1.643 0.97v0l0.473 0.312c-0.832-0.863-1.866-2.147-3.103-3.853v0l-3.951-5.449 3.012-2.184 9.54 13.157-3.303 2.395-7.093-3.17c-0.924-0.4-1.792-0.825-2.604-1.275-0.816-0.455-1.4-0.801-1.754-1.038v0l-0.512-0.382c1.044 1.03 2.127 2.32 3.251 3.869z" fill="#ca3433" data-fill-palette-color="accent"></path><path d="M175.265 170.133v0l-3.719 4.108-12.047-10.908 3.752-4.144c1.642-1.814 3.541-2.793 5.695-2.938 2.164-0.145 4.074 0.532 5.73 2.031v0c1.933 1.75 2.938 3.694 3.016 5.833 0.078 2.139-0.731 4.145-2.427 6.018zM165.439 161.332v0l-1.114 1.231 7.525 6.813 1.127-1.246c1.007-1.112 1.435-2.28 1.285-3.505-0.141-1.225-0.844-2.41-2.11-3.556v0c-1.073-0.971-2.208-1.446-3.405-1.424-1.203 0.017-2.305 0.579-3.308 1.687z" fill="#ca3433" data-fill-palette-color="accent"></path><path d="M180.824 150.965v0l0.417 0.438 1.954-3.375-0.587-0.144c-1.596-0.385-2.946-0.728-4.05-1.028-1.114-0.298-1.824-0.502-2.132-0.61v0l-0.465-0.154c0.704 0.554 2.325 2.179 4.863 4.873zM183.377 153.681l2.391 2.517-1.95 3.367-11.342-12.845 2.346-4.05 16.78 3.454-1.995 3.445-3.378-0.813z" fill="#ca3433" data-fill-palette-color="accent"></path><path d="M190.686 133.858v0l-0.63 1.772 4.956 1.763-1.243 3.496-15.312-5.447 1.873-5.267c0.603-1.696 1.57-2.902 2.901-3.618 1.328-0.709 2.727-0.803 4.197-0.28v0c1.677 0.597 2.782 1.609 3.314 3.037 0.535 1.421 0.516 2.936-0.056 4.544zM182.985 131.576v0l-0.486 1.366 4.787 1.702 0.412-1.159c0.657-1.847 0.147-3.069-1.531-3.665v0c-1.514-0.539-2.575 0.047-3.182 1.756z" fill="#ca3433" data-fill-palette-color="accent"></path><path d="M1.906 103.24c0-3.429 2.779-6.208 6.208-6.208 3.429 0 6.208 2.779 6.208 6.208 0 3.429-2.779 6.208-6.208 6.208-3.429 0-6.208-2.779-6.208-6.208z" fill="#ca3433" data-fill-palette-color="accent"></path><path d="M188.795 103.24c0-3.429 2.779-6.208 6.208-6.208 3.429 0 6.208 2.779 6.208 6.208 0 3.429-2.779 6.208-6.208 6.208-3.429 0-6.208-2.779-6.208-6.208z" fill="#ca3433" data-fill-palette-color="accent"></path></g></svg></g></svg></g></svg></g><defs></defs></svg><rect width="395.52" height="130.3097691459483" fill="none" stroke="none" visibility="hidden"></rect></g></svg></g></svg>